<?xml version="1.0" encoding="UTF-8"?>
<svg version="1.1" xmlns="http://www.w3.org/2000/svg" width="500" height="313">
<path d="M0 0 C165 0 330 0 500 0 C500 103.29 500 206.58 500 313 C335 313 170 313 0 313 C0 209.71 0 106.42 0 0 Z " fill="#FCFCFD" transform="translate(0,0)"/>
<path d="M0 0 C31.02 0 62.04 0 94 0 C91 9 91 9 90 11 C91.0828125 11.1546875 91.0828125 11.1546875 92.1875 11.3125 C97.16760165 12.52985818 100.85842426 15.07829645 104.05078125 19.13671875 C106.57510415 24.0918711 105.27850948 29.67172403 104.1875 34.875 C99.02650995 46.72616235 85.23752498 57.22196239 73.7890625 62.47265625 C70.57346123 64.23358076 69.52732241 65.74682649 67.6875 68.875 C64.34508809 73.9554661 60.77069357 76.97332388 55 79 C53.68 79 52.36 79 51 79 C51 87.25 51 95.5 51 104 C53.31 104.33 55.62 104.66 58 105 C62.74961586 107.51450251 65.51625301 110.22356349 68 115 C68.25 118.375 68.25 118.375 68 121 C68.66 121 69.32 121 70 121 C70 123.64 70 126.28 70 129 C54.16 129 38.32 129 22 129 C22 126.36 22 123.72 22 121 C22.99 121 23.98 121 25 121 C24.9175 120.13375 24.835 119.2675 24.75 118.375 C25.07184476 114.03009569 26.1799678 112.31353783 29 109 C33.5276825 105.3986492 36.06385736 104 42 104 C42 95.75 42 87.5 42 79 C39.69 78.67 37.38 78.34 35 78 C30.67802183 76.07084116 28.05235456 73.36783508 25.9375 69.1875 C23.2482112 64.44117241 19.08050196 62.48093701 14.44067383 59.99853516 C3.46985764 54.10629562 -7.75996813 45.27642892 -12.36328125 33.3203125 C-13.52894302 29.07244078 -14.0407457 25.3225638 -13 21 C-10.51109031 16.83559523 -7.54321617 13.86132995 -3.3125 11.5 C-1 11 -1 11 3 11 C2.7834375 10.45730469 2.566875 9.91460937 2.34375 9.35546875 C2.0653125 8.64003906 1.786875 7.92460938 1.5 7.1875 C1.2215625 6.47980469 0.943125 5.77210937 0.65625 5.04296875 C0 3 0 3 0 0 Z " fill="#FBB042" transform="translate(198,103)"/>
<path d="M0 0 C48.18 0 96.36 0 146 0 C146 4.29 146 8.58 146 13 C97.82 13 49.64 13 0 13 C0 8.71 0 4.42 0 0 Z " fill="#387ED1" transform="translate(76,67)"/>
<path d="M0 0 C1.52947266 -0.02320313 1.52947266 -0.02320313 3.08984375 -0.046875 C9.20602364 -0.01506132 12.86654989 0.40289782 17.5 4.5 C20.88433761 8.59682973 22.00604514 11.18652603 21.5 16.5 C22.16 16.5 22.82 16.5 23.5 16.5 C23.5 19.14 23.5 21.78 23.5 24.5 C7.66 24.5 -8.18 24.5 -24.5 24.5 C-24.5 21.86 -24.5 19.22 -24.5 16.5 C-23.51 16.5 -22.52 16.5 -21.5 16.5 C-21.5825 15.63375 -21.665 14.7675 -21.75 13.875 C-21.35932259 8.60085491 -18.95488207 5.78647129 -15.0703125 2.3515625 C-10.47787456 -0.59741368 -5.27391474 -0.08000882 0 0 Z " fill="#FBB041" transform="translate(244.5,207.5)"/>
<path d="M0 0 C19.8 0 39.6 0 60 0 C60 4.62 60 9.24 60 14 C40.2 14 20.4 14 0 14 C0 9.38 0 4.76 0 0 Z " fill="#3D81D2" transform="translate(318,253)"/>
<path d="M0 0 C9.9 0 19.8 0 30 0 C30 4.62 30 9.24 30 14 C20.1 14 10.2 14 0 14 C0 9.38 0 4.76 0 0 Z " fill="#3B80D1" transform="translate(304,224)"/>
<path d="M0 0 C15.84 0 31.68 0 48 0 C48 2.64 48 5.28 48 8 C32.16 8 16.32 8 0 8 C0 5.36 0 2.72 0 0 Z " fill="#D18A2C" transform="translate(220,224)"/>
<path d="M0 0 C1.45433934 3.78584492 2.89645676 7.57609469 4.32739258 11.37084961 C4.81591173 12.66118266 5.30775575 13.95026199 5.80297852 15.23803711 C6.51410167 17.08895445 7.21231337 18.94481615 7.91015625 20.80078125 C8.33433838 21.91622314 8.75852051 23.03166504 9.19555664 24.1809082 C10 27 10 27 9 30 C-7.53911439 18.24594096 -7.53911439 18.24594096 -11.125 7.6875 C-11 5 -11 5 -9.1875 2.6875 C-5.89387138 0.14670078 -4.10955679 -0.10814623 0 0 Z " fill="#FAF6F2" transform="translate(205,123)"/>
<path d="M0 0 C4.21769142 0.59509893 6.76893469 1.14174992 10 4 C9.66164642 11.95130911 5.98825759 17.2263919 0.2265625 22.57421875 C-7.46016484 29 -7.46016484 29 -10 29 C-7.24809142 19.12550449 -3.59872163 9.58969974 0 0 Z " fill="#FAF6F1" transform="translate(284,123)"/>
<path d="M0 0 C5.99932374 1.8331267 11.44920563 4.07321751 17 7 C12.88862122 11.23985937 8.59026002 15.27845742 4 19 C3.67 19 3.34 19 3 19 C2.49356447 16.77228658 1.9951038 14.54275924 1.5 12.3125 C1.2215625 11.07113281 0.943125 9.82976562 0.65625 8.55078125 C0.10645874 5.57601782 -0.13795705 3.00631398 0 0 Z " fill="#4184D3" transform="translate(76,173)"/>
<path d="M0 0 C1 1 1 1 1.1875 4.4375 C1 8 1 8 -1 10 C-4.5 10.3125 -4.5 10.3125 -8 10 C-10.15502531 6.76746204 -10.46856135 5.74849077 -10 2 C-7.59027568 -2.25245468 -4.23782457 -0.94173879 0 0 Z " fill="#FA5E58" transform="translate(388,1)"/>
<path d="M0 0 C2.0625 0.4375 2.0625 0.4375 4 1 C4.625 2.875 4.625 2.875 5 5 C4.34 5.66 3.68 6.32 3 7 C0.375 6.625 0.375 6.625 -2 6 C-1.125 1.125 -1.125 1.125 0 0 Z " fill="#FCB855" transform="translate(459,105)"/>
<path d="M0 0 C2.0625 0.4375 2.0625 0.4375 4 1 C4.625 2.875 4.625 2.875 5 5 C4.34 5.66 3.68 6.32 3 7 C0.375 6.625 0.375 6.625 -2 6 C-1.125 1.125 -1.125 1.125 0 0 Z " fill="#FBB753" transform="translate(370,105)"/>
<path d="M0 0 C1.67542976 0.28604898 3.34385343 0.61781233 5 1 C5.625 2.875 5.625 2.875 6 5 C5.34 5.66 4.68 6.32 4 7 C1.875 6.625 1.875 6.625 0 6 C-0.38218767 4.34385343 -0.71395102 2.67542976 -1 1 C-0.67 0.67 -0.34 0.34 0 0 Z " fill="#FCB853" transform="translate(369,46)"/>
<path d="M0 0 C1.2065625 0.0309375 1.2065625 0.0309375 2.4375 0.0625 C2.81968767 1.71864657 3.15145102 3.38707024 3.4375 5.0625 C2.4375 6.0625 2.4375 6.0625 -0.125 6.125 C-1.3315625 6.0940625 -1.3315625 6.0940625 -2.5625 6.0625 C-2.94468767 4.40635343 -3.27645102 2.73792976 -3.5625 1.0625 C-2.5625 0.0625 -2.5625 0.0625 0 0 Z " fill="#FCB853" transform="translate(430.5625,75.9375)"/>
<path d="M0 0 C1.67542976 0.28604898 3.34385343 0.61781233 5 1 C5 2.65 5 4.3 5 6 C3.34385343 6.38218767 1.67542976 6.71395102 0 7 C-1 6 -1 6 -1.125 3.5 C-1 1 -1 1 0 0 Z " fill="#FCB752" transform="translate(399,46)"/>
<path d="M0 0 C2.125 0.375 2.125 0.375 4 1 C4.625 2.875 4.625 2.875 5 5 C4.34 5.66 3.68 6.32 3 7 C0.875 6.625 0.875 6.625 -1 6 C-1.625 4.125 -1.625 4.125 -2 2 C-1.34 1.34 -0.68 0.68 0 0 Z " fill="#FCB64F" transform="translate(429,135)"/>
<path d="M0 0 C2.125 0.375 2.125 0.375 4 1 C4.625 2.875 4.625 2.875 5 5 C4.34 5.66 3.68 6.32 3 7 C0.875 6.625 0.875 6.625 -1 6 C-1.625 4.125 -1.625 4.125 -2 2 C-1.34 1.34 -0.68 0.68 0 0 Z " fill="#FCB64F" transform="translate(429,105)"/>
<path d="M0 0 C1.32 0 2.64 0 4 0 C4.33 1.98 4.66 3.96 5 6 C3.34385343 6.38218767 1.67542976 6.71395102 0 7 C-1 6 -1 6 -1.125 3.5 C-1 1 -1 1 0 0 Z " fill="#FCB751" transform="translate(399,105)"/>
<path d="M0 0 C1.65 0.33 3.3 0.66 5 1 C5 2.65 5 4.3 5 6 C3.125 6.625 3.125 6.625 1 7 C0.34 6.34 -0.32 5.68 -1 5 C-0.625 2.375 -0.625 2.375 0 0 Z " fill="#FCB64E" transform="translate(458,135)"/>
<path d="M0 0 C1.67542976 0.28604898 3.34385343 0.61781233 5 1 C5 2.32 5 3.64 5 5 C3.35 5.33 1.7 5.66 0 6 C-0.38218767 4.34385343 -0.71395102 2.67542976 -1 1 C-0.67 0.67 -0.34 0.34 0 0 Z " fill="#FCB349" transform="translate(458,76)"/>
<path d="M0 0 C1.2065625 0.0309375 1.2065625 0.0309375 2.4375 0.0625 C2.4375 2.0425 2.4375 4.0225 2.4375 6.0625 C0.7875 6.0625 -0.8625 6.0625 -2.5625 6.0625 C-2.94468767 4.40635343 -3.27645102 2.73792976 -3.5625 1.0625 C-2.5625 0.0625 -2.5625 0.0625 0 0 Z " fill="#FBB349" transform="translate(371.5625,75.9375)"/>
<path d="M0 0 C1.67542976 0.28604898 3.34385343 0.61781233 5 1 C4.67 2.65 4.34 4.3 4 6 C2.35 6 0.7 6 -1 6 C-1.042721 4.33388095 -1.04063832 2.66617115 -1 1 C-0.67 0.67 -0.34 0.34 0 0 Z " fill="#FCB347" transform="translate(399,135)"/>
<path d="M0 0 C1.65 0.33 3.3 0.66 5 1 C4.67 2.65 4.34 4.3 4 6 C2.35 5.67 0.7 5.34 -1 5 C-0.67 3.35 -0.34 1.7 0 0 Z " fill="#FCB142" transform="translate(399,76)"/>
</svg>
